<svg width="258" height="132" viewBox="0 0 258 132" fill="none" xmlns="http://www.w3.org/2000/svg">
<path d="M91.9478 131.404C91.9478 131.404 95.959 85.1804 145.46 73.1633C156.969 70.3693 165.877 74.0312 168.632 81.8747C171.532 90.131 157.835 98.8512 153.068 87.8931C149.014 78.573 157.013 63.178 180.65 53.8683C204.367 44.5266 247.433 51.9168 247.433 51.9168M247.433 51.9168L240.5 55M247.433 51.9168L241.895 47.7485" stroke="#818187"/>
<path d="M15.3852 77.3243C15.054 77.282 14.7102 77.2323 14.3539 77.1752C14.0175 77.1129 13.673 76.978 13.3203 76.7705C12.9928 76.5778 12.6669 76.2673 12.3424 75.839C11.992 75.3106 11.7043 74.7767 11.4791 74.2373C11.2739 73.6927 11.0855 73.0477 10.9137 72.3023C10.6441 71.262 10.4809 70.3435 10.4239 69.547C10.3818 68.7253 10.4172 67.8729 10.5299 66.9897C10.5544 66.9193 10.5803 66.7311 10.6078 66.4251C10.6501 66.0939 10.6972 65.7401 10.7491 65.3638C10.821 64.9822 10.8737 64.691 10.907 64.4902C10.979 64.1086 11.1024 63.5963 11.2774 62.9532C11.4671 62.2849 11.6821 61.6314 11.9223 60.9928C12.2796 59.9822 12.5835 59.1776 12.834 58.5789C13.0845 57.9803 13.3358 57.4669 13.5877 57.0386C13.8397 56.6104 14.1369 56.1918 14.4793 55.7829C14.8365 55.3488 15.2956 54.8135 15.8565 54.1771C16.2137 53.743 16.6498 53.4485 17.1648 53.2937C17.6998 53.1338 18.231 53.1242 18.7585 53.2651C19.2809 53.3859 19.7143 53.6579 20.0588 54.081C20.3877 54.4441 20.6299 54.9258 20.7854 55.526C20.9357 56.1061 21.0064 56.7497 20.9974 57.4565C20.9832 58.1434 20.8912 58.8183 20.7215 59.4815C20.5517 60.1446 20.306 60.7206 19.9844 61.2096C19.7865 61.517 19.5697 61.6693 19.3341 61.6663C19.1185 61.6581 18.837 61.5602 18.4895 61.3727C18.2213 61.0793 18.0695 60.9051 18.0339 60.8503C18.0183 60.7903 18.048 60.7399 18.1228 60.6992C18.2066 60.528 18.3044 60.2465 18.4164 59.8545C18.5283 59.4626 18.6351 59.0507 18.7366 58.6187C18.833 58.1668 18.8901 57.8104 18.908 57.5496C18.8503 56.6678 18.8074 56.0492 18.7793 55.6935C18.746 55.3178 18.616 55.0633 18.3893 54.9299C18.2886 54.8706 18.1607 54.8717 18.0059 54.9332C17.871 54.9895 17.6569 55.1517 17.3634 55.4199C16.9551 55.7392 16.4716 56.3448 15.9128 57.2368C15.3488 58.1088 14.8656 59.0453 14.4631 60.0462C13.9376 61.3139 13.511 62.4278 13.1834 63.388C12.8557 64.3482 12.6633 65.2948 12.6061 66.2276C12.5868 66.318 12.5557 66.4862 12.5127 66.7322C12.4897 66.973 12.4782 67.0934 12.4782 67.0934C12.5189 67.1682 12.5408 67.376 12.5437 67.7169C12.5414 68.0377 12.5188 68.3211 12.4757 68.5671C12.4941 69.5444 12.6129 70.5384 12.8321 71.549C13.046 72.5397 13.3216 73.397 13.6586 74.1209C14.0156 74.8397 14.383 75.3102 14.7609 75.5326C15.0676 75.6452 15.4333 75.6146 15.8578 75.4405C16.3024 75.2613 16.7863 74.9864 17.3095 74.616C17.8326 74.2457 18.3606 73.8527 18.8934 73.4371C19.3217 73.1126 19.7048 72.7785 20.0427 72.4348C20.3806 72.091 20.6263 71.8032 20.7797 71.5713C20.9087 71.4098 21.0776 71.2379 21.2866 71.0557C21.5104 70.8483 21.7123 70.7212 21.8924 70.6746C22.1465 70.502 22.2962 70.4205 22.3414 70.4301C22.3866 70.4398 22.4299 70.5246 22.4714 70.6847C22.544 70.9647 22.4643 71.3163 22.2323 71.7393C22.0203 72.1572 21.7105 72.5684 21.303 72.9729C21.1844 73.1744 21.0184 73.3989 20.805 73.6463C20.5915 73.8937 20.3577 74.1038 20.1036 74.2764C19.7664 74.7053 19.3266 75.1502 18.7841 75.611C18.2417 76.0718 17.6711 76.4651 17.0724 76.791C16.4937 77.1118 15.9313 77.2895 15.3852 77.3243ZM26.3439 70.9622C26.209 71.0185 26.059 71.0574 25.8937 71.0789C25.7433 71.0751 25.5851 71.0414 25.4192 70.9777C25.2177 70.8591 25.0765 70.7676 24.9958 70.7031C24.9098 70.6186 24.851 70.4737 24.8191 70.2685C24.8073 70.0581 24.797 69.7298 24.7882 69.2838C24.8053 68.9378 24.8112 68.4665 24.8062 67.8701C24.7959 67.2536 24.7982 66.6446 24.8131 66.0429C24.7902 65.7073 24.7847 65.3565 24.7966 64.9904C24.8285 64.6192 24.8682 64.278 24.9156 63.9669C24.9579 63.6357 24.9883 63.3823 25.0069 63.2067C25.0218 62.605 25.0448 62.076 25.076 61.6196C25.1272 61.158 25.1929 60.6286 25.273 60.0314C25.3479 59.4142 25.4262 58.604 25.5078 57.6008C25.637 56.2864 25.7312 55.2906 25.7906 54.6134C25.8648 53.911 25.9156 53.4068 25.9431 53.1008C25.9854 52.7696 26.0058 52.5188 26.0043 52.3484C25.9628 52.1883 25.9718 52.0579 26.031 51.9572C26.1103 51.8512 26.22 51.7801 26.36 51.7438C26.6401 51.6713 26.8965 51.7543 27.1291 51.9929C27.3765 52.2063 27.5695 52.4979 27.708 52.8677C27.8413 53.2174 27.8694 53.5731 27.7923 53.9346C27.6588 54.7378 27.5416 55.6862 27.4407 56.7798C27.3346 57.8534 27.2359 58.9144 27.1446 59.9628C27.0481 60.9912 26.9354 61.8744 26.8063 62.6123C26.8271 62.6924 26.8334 62.8402 26.8252 63.0558C26.817 63.2714 26.7936 63.4696 26.7551 63.6504C26.7165 63.8312 26.6754 64.0019 26.6316 64.1627C26.6079 64.3183 26.596 64.3961 26.596 64.3961C26.6168 64.4761 26.6256 64.6339 26.6226 64.8696C26.6196 65.1052 26.6096 65.396 26.5925 65.742C26.5747 66.0028 26.555 66.3388 26.5334 66.75C26.5319 67.1561 26.5448 67.4943 26.5722 67.7648C26.6256 67.5588 26.7657 67.2343 26.9924 66.7912C27.2192 66.3482 27.439 65.9603 27.6517 65.6277C27.8992 65.2647 28.179 64.8613 28.491 64.4175C28.803 63.9737 29.0583 63.6407 29.2569 63.4185C29.4555 63.1962 29.6293 63.0017 29.7782 62.835C29.942 62.6432 30.0239 62.5472 30.0239 62.5472C30.0031 62.4672 30.0228 62.4194 30.0828 62.4039C30.1576 62.3631 30.2351 62.3324 30.3151 62.3117C30.3951 62.2909 30.4325 62.2706 30.4273 62.2505C30.4422 62.2254 30.4392 62.1728 30.4185 62.0927C30.3926 61.9927 30.4793 61.8742 30.6786 61.7371C30.8979 61.5949 31.1525 61.4649 31.4422 61.3471C31.7467 61.2042 31.999 61.1068 32.1991 61.0549C32.4392 60.9927 32.6422 60.9935 32.8082 61.0573C32.9741 61.121 33.2112 61.2944 33.5194 61.5775C33.8424 61.8354 34.0935 62.1866 34.2728 62.6312C34.4668 63.0506 34.546 63.5211 34.5104 64.0427C34.5519 64.2028 34.5815 64.4406 34.5992 64.7563C34.6317 65.0467 34.6895 65.352 34.7724 65.6721L34.8412 66.679L35.3213 66.5546C35.4814 66.5132 35.6392 66.5043 35.7948 66.528C35.9452 66.5317 36.0204 66.5336 36.0204 66.5336C36.1212 66.5929 36.2219 66.6522 36.3227 66.7115C36.4183 66.7508 36.5061 66.76 36.5861 66.7393C36.8262 66.6771 36.9421 66.7538 36.9339 66.9694C36.9206 67.165 36.8146 67.3739 36.616 67.5962C36.2188 68.0407 35.8201 68.3148 35.42 68.4185C35.0399 68.517 34.6483 68.4476 34.2453 68.2105C33.837 67.9533 33.5385 67.625 33.3496 67.2256C33.1607 66.8262 33.0634 66.2857 33.0575 65.604C32.9095 64.703 32.7836 64.0525 32.68 63.6524C32.5911 63.227 32.4367 63.0429 32.2166 63.0999C32.0165 63.1518 31.7027 63.3825 31.2751 63.7922C30.8424 64.1819 30.3755 64.6871 29.8745 65.3079C29.3736 65.9288 28.8956 66.597 28.4405 67.3127C27.9855 68.0284 27.6357 68.7381 27.391 69.442C27.2287 69.8043 27.0686 70.134 26.9108 70.4311C26.7477 70.7082 26.5588 70.8852 26.3439 70.9622ZM44.6131 66.8371C44.2863 67.3061 43.8505 67.6431 43.3059 67.8483C42.7813 68.0483 42.2304 68.1056 41.6532 68.0203C41.0709 67.915 40.5475 67.6664 40.0829 67.2743C39.6288 66.9223 39.2791 66.4792 39.034 65.9449C38.7836 65.3907 38.5792 64.643 38.4208 63.702C38.2787 62.9062 38.3266 62.0612 38.5646 61.1669C38.7973 60.2527 39.1435 59.4051 39.603 58.6242C40.0825 57.8381 40.6012 57.2447 41.1592 56.844C41.4075 56.5661 41.6342 56.4113 41.8395 56.3795C42.0595 56.3225 42.3948 56.257 42.8453 56.1829C43.321 56.1237 43.6844 56.1256 43.9356 56.1886C44.2068 56.2465 44.4383 56.3573 44.6302 56.5211C45.008 56.7434 45.2858 56.9916 45.4636 57.2658C45.6362 57.52 45.7588 57.7871 45.8314 58.0672C45.8654 58.5281 45.7053 59.146 45.351 59.9209C45.0115 60.6707 44.4835 61.3519 43.7669 61.9646C43.3631 62.2187 42.8985 62.4031 42.3731 62.5179C41.8478 62.6326 41.384 62.614 40.9817 62.4621C40.5601 62.4005 40.3178 62.4953 40.2548 62.7465C40.1866 62.9777 40.2061 63.5063 40.3134 64.3325C40.4304 65.1134 40.6356 65.6581 40.9289 65.9663C41.2171 66.2546 41.539 66.3847 41.8947 66.3566C42.3155 66.3329 42.6412 66.3126 42.8716 66.2956C43.1169 66.2534 43.3836 66.0882 43.6719 65.8C43.9401 65.517 44.1117 65.3552 44.1865 65.3144C44.2562 65.2537 44.3058 65.1981 44.3355 65.1477C44.38 65.0722 44.4763 64.9084 44.6245 64.6565C44.7283 64.4802 44.8124 64.3517 44.8769 64.2709C44.9362 64.1702 45.0158 64.1068 45.1159 64.0809C45.2159 64.055 45.3189 64.0817 45.4248 64.161C45.5256 64.2203 45.6211 64.2595 45.7115 64.2788C45.9116 64.227 45.9827 64.3366 45.9249 64.6078C45.887 64.8738 45.7521 65.2183 45.5202 65.6414C45.283 66.0444 44.9807 66.443 44.6131 66.8371ZM42.9347 60.483C43.1288 60.3259 43.3226 60.1263 43.516 59.884C43.7043 59.6217 43.8499 59.3598 43.9529 59.0983C44.0708 58.8116 44.109 58.5882 44.0675 58.4281C43.995 58.1481 43.8053 57.9517 43.4986 57.839C43.1867 57.7063 42.7888 57.7774 42.3049 58.0522C42.1004 58.1693 41.8892 58.3841 41.6713 58.6967C41.4482 58.9894 41.2429 59.3094 41.0554 59.6569C40.8879 59.9992 40.7527 60.3011 40.6496 60.5626C40.5666 60.819 40.5503 60.962 40.6007 60.9916C40.6866 61.0761 40.8774 61.1121 41.173 61.0995C41.4635 61.067 41.7762 60.9966 42.1111 60.8885C42.466 60.7752 42.7405 60.64 42.9347 60.483ZM52.3346 65.2207C51.8944 65.3348 51.5591 65.4003 51.3287 65.4173C51.0983 65.4343 50.9127 65.4184 50.7719 65.3694C50.6311 65.3205 50.4626 65.2468 50.2662 65.1482C50.1448 65.0089 50.0007 64.8647 49.834 64.7158C49.6673 64.5668 49.5336 64.4627 49.4328 64.4034C49.275 64.1241 49.1339 63.7443 49.0095 63.2642C48.9051 62.7788 48.8304 62.2431 48.7853 61.6571C48.7602 61.0658 48.7854 60.5042 48.8611 59.9722C48.8996 59.7914 48.9282 59.6132 48.9467 59.4376C48.9653 59.262 48.9746 59.1742 48.9746 59.1742C48.9486 59.0742 49.0065 58.803 49.1481 58.3607C49.3097 57.9132 49.4861 57.4405 49.6773 56.9426C49.8885 56.4395 50.0709 56.0721 50.2243 55.8402C50.3228 55.6438 50.4888 55.4194 50.7223 55.1667C50.9757 54.9089 51.2021 54.7115 51.4014 54.5745C51.6008 54.4374 51.8027 54.3104 52.0072 54.1933C52.2317 54.0711 52.494 53.9711 52.7941 53.8934C53.0742 53.8208 53.3498 53.8134 53.621 53.8713C53.8922 53.9291 54.1767 54.0796 54.4745 54.3226C54.9279 54.5894 55.2213 54.8977 55.3546 55.2474C55.5027 55.572 55.5834 55.9247 55.5967 56.3055C55.6004 56.7316 55.5507 57.0754 55.4476 57.3369C55.3394 57.5784 55.1827 57.7151 54.9775 57.7469C54.7722 57.7788 54.5033 57.6883 54.1706 57.4756C54.0491 57.3363 53.9754 57.2167 53.9495 57.1166C53.9184 56.9966 53.9144 56.8162 53.9374 56.5754C53.9448 56.2745 53.8697 55.9845 53.7119 55.7051C53.5541 55.4257 53.3852 55.3094 53.2051 55.356C52.945 55.4234 52.6861 55.6186 52.4282 55.9416C52.1851 56.2395 51.9476 56.5999 51.7156 57.0229C51.617 57.2193 51.4818 57.5212 51.3098 57.9287C51.1527 58.311 51.0059 58.7333 50.8695 59.1956C50.7279 59.6379 50.6238 60.0599 50.557 60.4614C50.508 61.1787 50.4653 61.7555 50.4289 62.1919C50.4126 62.6231 50.4044 62.8387 50.4044 62.8387C50.4251 62.9187 50.4659 62.9936 50.5266 63.0632C50.6022 63.1077 50.6503 63.17 50.6711 63.25C50.7333 63.49 50.9226 63.6438 51.2389 63.7113C51.4953 63.7943 51.7761 63.807 52.0814 63.7492C52.3815 63.6714 52.7257 63.4755 53.114 63.1614C53.3926 62.9184 53.6382 62.6306 53.8509 62.298C54.0836 61.9601 54.3341 61.6497 54.6024 61.3667C54.7862 61.1697 54.9251 61.0056 55.0192 60.8744C55.1334 60.7381 55.2008 60.71 55.2215 60.79C55.2423 60.87 55.2826 60.9023 55.3427 60.8867C55.4027 60.8712 55.4623 60.813 55.5216 60.7122C55.6002 60.5211 55.7043 60.3874 55.834 60.3111C55.9585 60.2148 56.0733 60.1637 56.1785 60.1578C56.2986 60.1266 56.3664 60.1411 56.3819 60.2011C56.3886 60.3915 56.4674 60.5312 56.6186 60.6202C56.6393 60.7002 56.6378 60.818 56.6141 60.9736C56.6052 61.104 56.5711 61.2196 56.5118 61.3203C56.448 61.4863 56.3395 61.6852 56.1861 61.9171C56.0527 62.1438 55.9241 62.3479 55.8003 62.5294C55.6714 62.6909 55.6069 62.7717 55.6069 62.7717C55.5217 62.7724 55.4468 62.8132 55.3824 62.8939C55.3379 62.9695 55.286 63.0576 55.2267 63.1584C55.103 63.3399 54.9814 63.4888 54.8621 63.6051C54.7376 63.7014 54.6354 63.76 54.5554 63.7807C54.436 63.897 54.339 63.9755 54.2641 64.0163C54.2093 64.0518 54.1922 64.1096 54.213 64.1896C54.0648 64.4415 53.851 64.6464 53.5716 64.8041C53.3071 64.9367 52.8947 65.0756 52.3346 65.2207ZM67.6411 62.0554C67.5818 62.1561 67.3695 62.2432 67.0042 62.3165C66.6589 62.3846 66.3181 62.3875 65.9817 62.3252C65.9261 62.2756 65.8406 62.2337 65.725 62.1996C65.6042 62.1455 65.4809 62.0814 65.3549 62.0073C65.249 61.928 65.1556 61.8561 65.0749 61.7916C65.0193 61.742 64.8908 61.6578 64.6893 61.5393C64.4826 61.4007 64.2785 61.2721 64.0769 61.1535C63.8754 61.0349 63.7369 60.9534 63.6613 60.9089C63.5398 60.7696 63.3279 60.611 63.0257 60.4332C62.7182 60.2353 62.4259 60.0548 62.1488 59.8918C61.957 59.728 61.7729 59.5942 61.5965 59.4905C61.4202 59.3867 61.2742 59.3178 61.1587 59.2837C61.0379 59.2296 60.9475 59.2103 60.8875 59.2259C60.8875 59.2259 60.8812 59.3663 60.8685 59.6471C60.8707 59.9027 60.861 60.2361 60.8395 60.6473C60.8328 61.0334 60.8186 61.432 60.7971 61.8432C60.7904 62.2292 60.7855 62.5401 60.7825 62.7757C60.715 63.092 60.6442 63.3132 60.5701 63.4391C60.496 63.5651 60.3789 63.6488 60.2189 63.6903C59.9988 63.7473 59.7728 63.6991 59.5409 63.5457C59.3291 63.3871 59.1739 63.1177 59.0754 62.7376C58.9228 62.4783 58.8647 61.8422 58.9012 60.8293C58.9376 59.8165 59.0567 58.5047 59.2585 56.8939C59.2608 56.5731 59.2805 56.2371 59.3176 55.8859C59.3495 55.5147 59.3769 55.2087 59.4 54.9679C59.429 54.2558 59.4809 53.5912 59.5558 52.974C59.6456 52.3316 59.7453 51.6867 59.8551 51.0391C59.9597 50.3715 60.0639 49.6614 60.1677 48.9086C60.2545 48.5018 60.3171 48.2081 60.3557 48.0273C60.389 47.8265 60.4324 47.6231 60.4858 47.4171C60.534 47.1912 60.6089 46.8622 60.7104 46.4302C60.938 45.496 61.1223 44.7651 61.2631 44.2375C61.404 43.71 61.5159 43.3181 61.599 43.0617C61.682 42.8054 61.7605 42.6142 61.8347 42.4883C61.9088 42.3623 62.0107 42.2612 62.1403 42.1849C62.27 42.1086 62.4101 42.0723 62.5605 42.076C62.7057 42.0598 62.8439 42.0987 62.975 42.1928C63.1765 42.3114 63.3106 42.4581 63.3773 42.633C63.4587 42.7827 63.4757 43.0131 63.4283 43.3243C63.4008 43.6303 63.3018 44.0722 63.1313 44.6501C63.0646 45.0517 63.0019 45.3455 62.9434 45.5314C62.8848 45.7174 62.8263 45.9034 62.7677 46.0893C62.7091 46.2753 62.6217 46.5969 62.5053 47.054C62.4964 47.1844 62.47 47.33 62.4263 47.4908C62.3826 47.6516 62.3107 47.7449 62.2106 47.7708C62.2262 47.8308 62.2273 47.9586 62.2139 48.1543C62.2006 48.3499 62.1746 48.5381 62.136 48.7188C62.133 48.9545 62.0952 49.2204 62.0226 49.5168C61.9647 49.788 61.9265 50.0114 61.908 50.187C61.8702 50.453 61.7956 50.8245 61.6844 51.3017C61.5932 51.7736 61.4994 52.2356 61.403 52.6876C61.3215 53.1143 61.2892 53.4429 61.3062 53.6734C61.3269 53.7534 61.3844 53.7278 61.4785 53.5967C61.5726 53.4656 61.6793 53.3418 61.7986 53.2255C62.0365 52.9077 62.3144 52.5795 62.6323 52.2409C62.965 51.8772 63.2881 51.5586 63.6016 51.2853C63.9299 50.9867 64.2089 50.7864 64.4386 50.6841C64.7179 50.5264 64.9476 50.4241 65.1277 50.3775C65.3278 50.3257 65.5382 50.3138 65.759 50.342C65.9398 50.3806 66.0983 50.4569 66.2346 50.571C66.3909 50.68 66.5324 50.8141 66.6591 50.9734C66.8058 51.1276 66.9328 51.3295 67.0402 51.5792C67.0869 51.7593 67.0946 52.0775 67.0634 52.5339C67.0323 52.9903 66.9685 53.4445 66.8721 53.8965C66.7705 54.3284 66.6404 54.6503 66.4818 54.8622C66.3573 54.9585 66.2629 55.047 66.1984 55.1278C66.1339 55.2085 66.1017 55.2489 66.1017 55.2489C66.1224 55.3289 66.1083 55.4393 66.0594 55.5801C66.0305 55.7157 65.9464 55.8442 65.807 55.9657C65.7478 56.0665 65.6836 56.1898 65.6147 56.3358C65.5458 56.4818 65.5191 56.5847 65.5347 56.6448C65.5347 56.6448 65.5424 56.6748 65.558 56.7348C65.5683 56.7748 65.5735 56.7948 65.5735 56.7948C65.4935 56.8155 65.389 56.9067 65.2601 57.0682C65.1511 57.2245 65.0074 57.4112 64.8288 57.6282C64.6657 57.9053 64.5368 58.0668 64.4419 58.1128C64.3671 58.1535 64.2574 58.2246 64.1129 58.3261C64.0833 58.3765 64.041 58.4194 63.9862 58.455C63.9514 58.4854 63.9065 58.5183 63.8517 58.5539C63.8169 58.5843 63.782 58.6146 63.7472 58.645C63.7324 58.6702 63.7302 58.7028 63.7405 58.7428C63.7613 58.8228 63.8954 58.9696 64.1428 59.183C64.4051 59.3712 64.7051 59.5817 65.0429 59.8144C65.4008 60.0419 65.7334 60.2546 66.0409 60.4525C66.3632 60.6252 66.5947 60.736 66.7355 60.7849C66.9563 60.8131 67.1326 60.9169 67.2645 61.0962C67.4111 61.2503 67.5204 61.4248 67.5922 61.6197C67.6589 61.7946 67.6752 61.9398 67.6411 62.0554ZM62.6637 57.6768C62.743 57.5709 62.9116 57.3564 63.1695 57.0334C63.4222 56.6904 63.6998 56.3196 64.0021 55.921C64.2993 55.5024 64.5617 55.1142 64.7892 54.7564C65.0315 54.3733 65.1946 54.0963 65.2783 53.9251C65.3821 53.7488 65.4599 53.4724 65.5118 53.096C65.5638 52.7197 65.5138 52.4444 65.3619 52.2702C65.3212 52.1954 65.1515 52.2821 64.8529 52.5302C64.5542 52.7784 64.2134 53.0695 63.8302 53.4037C63.542 53.6918 63.2092 54.0556 62.832 54.4949C62.4748 54.929 62.1428 55.378 61.836 55.8418C61.5492 56.3004 61.3498 56.7256 61.2379 57.1176C61.2342 57.268 61.3156 57.4177 61.4823 57.5666C61.649 57.7156 61.8454 57.8142 62.0713 57.8623C62.2921 57.8905 62.4896 57.8287 62.6637 57.6768ZM80.4276 58.4541C80.1972 58.4712 79.9386 58.4207 79.6519 58.3029C79.38 58.1598 79.1229 57.9916 78.8807 57.7982C78.6532 57.5796 78.4836 57.378 78.3717 57.1935C78.3614 57.1535 78.3184 57.1113 78.2428 57.0668C78.1873 57.0171 78.1595 56.9923 78.1595 56.9923C78.0639 56.953 77.9465 56.7059 77.8073 56.251C77.6829 55.7708 77.5755 55.2329 77.4852 54.6372C77.3949 54.0414 77.3457 53.5631 77.3376 53.2023C77.3547 52.8563 77.3933 52.3873 77.4534 51.7953C77.5083 51.1833 77.5488 50.6391 77.5748 50.1627L77.934 48.2122L76.6481 48.1931C76.4977 48.1894 76.357 48.1405 76.2258 48.0463C76.1147 47.947 76.0488 47.8574 76.028 47.7774C75.9866 47.6173 76.0274 47.4039 76.1504 47.1372C76.2682 46.8505 76.3672 46.6968 76.4472 46.676C76.5524 46.6701 76.7351 46.6335 76.9951 46.5661C77.2752 46.4935 77.5427 46.4135 77.7976 46.3261C78.0525 46.2387 78.2074 46.1773 78.2622 46.1417C78.3319 46.081 78.3989 46.0102 78.4634 45.9294C78.5227 45.8287 78.5542 45.7031 78.5579 45.5527C78.6009 45.3067 78.6391 45.0833 78.6725 44.8825C78.7007 44.6617 78.7537 44.4132 78.8315 44.1368C78.9042 43.8404 78.9572 43.5919 78.9906 43.3911C79.044 43.1851 79.1292 42.8962 79.2463 42.5242C79.3101 42.3583 79.3761 42.1597 79.4443 41.9285C79.5125 41.6974 79.6184 41.4884 79.7622 41.3018C79.9008 41.0951 80.0627 40.9784 80.2479 40.9517C80.448 40.8999 80.7318 40.9651 81.0992 41.1475C81.3111 41.3061 81.44 41.4328 81.486 41.5276C81.5319 41.6225 81.5011 41.8333 81.3936 42.16C81.3217 42.5416 81.2198 42.9309 81.0878 43.328C80.9759 43.72 80.8739 44.1093 80.782 44.4961C80.5759 45.0192 80.5807 45.2848 80.7963 45.293C81.0119 45.3011 81.5617 45.116 82.4457 44.7375C83 44.4871 83.4279 44.4083 83.7294 44.501C84.0258 44.5736 84.2381 44.7748 84.3662 45.1045C84.5506 45.5691 84.5758 45.8722 84.4416 46.0137C84.3075 46.1552 83.8603 46.3244 83.1001 46.5214C82.6407 46.7258 82.2435 46.8821 81.9086 46.9902C81.5685 47.0784 81.3184 47.1432 81.1584 47.1846C80.9035 47.272 80.736 47.3261 80.656 47.3468C80.576 47.3675 80.4611 47.4187 80.3114 47.5001C80.1618 47.5816 80.0599 47.6827 80.0058 47.8035C79.9665 47.8991 79.9276 48.0373 79.889 48.218C79.8297 48.3188 79.7641 48.56 79.6922 48.9415C79.6202 49.3231 79.5161 49.7451 79.3797 50.2074C79.3173 51.1202 79.2949 52.0227 79.3126 52.9147C79.3251 53.7868 79.3724 54.6285 79.4545 55.4399C79.5041 55.9608 79.6048 56.3083 79.7566 56.4824C79.9033 56.6366 80.1919 56.6792 80.6224 56.6104C80.8476 56.5733 81.1978 56.4826 81.6727 56.3382C82.1625 56.1686 82.5371 56.0075 82.7964 55.8549C82.9906 55.6979 83.1947 55.5382 83.4089 55.376C83.6178 55.1938 83.8068 55.0167 83.9758 54.8448C84.1299 54.6981 84.284 54.5515 84.4382 54.4048C84.5871 54.2381 84.6616 54.1548 84.6616 54.1548C84.7202 53.9688 84.8172 53.8903 84.9528 53.9192C85.0884 53.9481 85.2273 54.0722 85.3695 54.2916C85.4317 54.5316 85.4465 54.7947 85.4139 55.0807C85.3812 55.3667 85.0915 55.7726 84.5446 56.2986C83.7895 57.0921 83.0473 57.6473 82.3182 57.9643C81.6039 58.2561 80.9737 58.4194 80.4276 58.4541ZM97.2578 53.3249C96.8198 53.6945 96.3879 53.8812 95.9618 53.8848C95.5306 53.8684 95.1405 53.6813 94.7916 53.3234C94.4627 52.9603 94.2153 52.4586 94.0494 51.8184C93.9924 51.5984 93.9369 51.2605 93.8828 50.8048C93.8488 50.3439 93.8196 49.8605 93.7952 49.3544C93.7657 48.8283 93.7643 48.3697 93.791 47.9785C93.8044 47.7829 93.8081 47.6325 93.8022 47.5273C93.8163 47.4169 93.7833 47.372 93.7033 47.3928C93.6233 47.4135 93.5362 47.4894 93.4421 47.6206C93.368 47.7465 93.3087 47.8473 93.2642 47.9228C92.9174 48.397 92.5713 48.9563 92.2259 49.6009C91.9005 50.2403 91.6078 50.8819 91.3476 51.5257C91.0823 52.1496 90.8766 52.7152 90.7305 53.2228C90.6045 53.7251 90.5674 54.0763 90.6192 54.2763C90.697 54.5764 90.6014 54.8254 90.3324 55.0232C90.0634 55.221 89.8007 55.2783 89.5444 55.1953C89.1072 55.0737 88.7998 54.8759 88.622 54.6017C88.459 54.3023 88.3117 53.7748 88.1799 53.019C87.9963 52.0632 87.8586 51.2022 87.7668 50.436C87.6751 49.6699 87.6278 48.8282 87.6249 47.9109C87.6369 46.9684 87.6697 45.8178 87.7233 44.4589C87.8019 43.6913 87.8709 42.9689 87.9303 42.2917C87.9845 41.5945 88.0346 41.0051 88.0806 40.5235C88.1466 40.0367 88.1867 39.7381 88.2008 39.6277C88.2749 39.5017 88.3427 39.228 88.4043 38.8064C88.4606 38.3648 88.497 37.9284 88.5134 37.4972C88.5497 37.0608 88.5576 36.8026 88.5368 36.7225C88.4954 36.5625 88.4891 36.4147 88.518 36.2791C88.5417 36.1235 88.5832 35.9953 88.6425 35.8945C88.7018 35.7938 88.7537 35.7056 88.7982 35.6301C88.8426 35.5545 88.8649 35.5167 88.8649 35.5167C88.9649 35.4908 89.0927 35.4897 89.2483 35.5134C89.4239 35.532 89.5973 35.5831 89.7684 35.6669C89.9344 35.7306 90.0581 35.8373 90.1396 35.987C90.3522 36.2308 90.4974 36.5028 90.5751 36.8029C90.6477 37.0829 90.6484 37.4564 90.5772 37.9231C90.526 38.3847 90.3962 39.0375 90.1879 39.8814C90.0285 40.5845 89.9043 41.2999 89.8153 42.0274C89.7263 42.755 89.655 43.51 89.6016 44.2925C89.5793 44.6185 89.5481 45.0749 89.508 45.6617C89.4879 46.2433 89.463 46.8476 89.4333 47.4744C89.4235 48.096 89.4183 48.6525 89.4175 49.1437C89.4315 49.6098 89.454 49.9028 89.4851 50.0228C89.5214 50.1629 89.6196 50.2122 89.7796 50.1707C89.9345 50.1092 90.0634 49.9477 90.1665 49.6862C90.205 49.5054 90.3232 49.2613 90.5211 48.9538C90.719 48.6464 90.8798 48.4019 91.0036 48.2204C91.1273 48.0389 91.2956 47.7818 91.5083 47.4491C91.721 47.1165 91.9537 46.7786 92.2064 46.4356C92.4539 46.0726 92.6944 45.7648 92.9278 45.5122C93.1561 45.2395 93.3502 45.0825 93.5102 45.041C93.7703 44.9736 94.0363 45.0114 94.3082 45.1545C94.5749 45.2775 94.7768 45.4387 94.9139 45.638C94.9894 45.6825 95.0702 45.747 95.1561 45.8315C95.2369 45.8959 95.2924 45.9456 95.3228 45.9804C95.4436 46.0345 95.5343 46.3846 95.595 47.0307C95.6704 47.6516 95.6725 48.4837 95.6013 49.5269C95.613 50.3138 95.6262 50.9829 95.641 51.5341C95.6705 52.0602 95.7653 52.3025 95.9254 52.261C95.9254 52.261 96.0099 52.1751 96.1788 52.0032C96.3678 51.8262 96.5642 51.6365 96.7679 51.4343C97.2496 50.9038 97.6928 50.5542 98.0973 50.3853C98.5167 50.1913 98.7549 50.2043 98.812 50.4243C98.8327 50.5043 98.8234 50.5921 98.7841 50.6877C98.7397 50.7633 98.7278 50.8411 98.7485 50.9211C98.7485 50.9211 98.7511 50.9311 98.7563 50.9511C98.7563 50.9511 98.7667 50.9911 98.7874 51.0712C98.7978 51.1112 98.7092 51.3049 98.5217 51.6524C98.329 51.9798 98.1089 52.3251 97.8614 52.6881C97.6287 53.0259 97.4275 53.2382 97.2578 53.3249ZM104.577 52.5172C103.697 52.7452 102.891 52.6017 102.16 52.0867C101.424 51.5516 100.936 50.7813 100.697 49.7759C100.55 49.0453 100.491 48.2388 100.518 47.3563C100.561 46.4487 100.693 45.5603 100.916 44.6912C101.134 43.8021 101.418 43.0027 101.768 42.2929C102.118 41.5832 102.532 41.0383 103.01 40.6582C103.184 40.5064 103.373 40.3719 103.578 40.2549C103.802 40.1327 104.035 40.0405 104.275 39.9782C104.495 39.9212 104.735 39.9016 104.996 39.9195C105.252 39.9173 105.47 39.9355 105.651 39.974C106.027 40.0259 106.331 40.1286 106.563 40.282C106.795 40.4354 107.035 40.704 107.284 41.0879C107.443 41.4524 107.543 41.7147 107.584 41.8748C107.626 42.0348 107.638 42.2879 107.621 42.6339C107.567 43.4163 107.418 44.1168 107.172 44.7355C106.927 45.3541 106.531 45.9264 105.984 46.4524C105.85 46.5939 105.681 46.7232 105.476 46.8402C105.286 46.9321 105.082 47.0065 104.862 47.0635C104.461 47.1672 104.053 47.1983 103.637 47.1567C103.235 47.09 102.885 46.9351 102.588 46.692L102.315 46.5063L102.288 46.7697C102.227 47.3617 102.197 47.9034 102.196 48.3946C102.215 48.8807 102.274 49.3137 102.373 49.6939C102.435 49.9339 102.515 50.1588 102.612 50.3685C102.729 50.573 102.858 50.7424 102.999 50.8765C103.111 50.9758 103.264 51.0321 103.459 51.0455C103.67 51.0337 103.885 50.9992 104.105 50.9422C104.245 50.9059 104.385 50.8697 104.525 50.8334C104.68 50.7719 104.82 50.693 104.944 50.5967C105.253 50.3885 105.49 50.1885 105.654 49.9966C105.837 49.7996 106.019 49.5925 106.197 49.3755L106.302 49.2843L106.272 49.2921C106.481 49.1099 106.66 48.9354 106.808 48.7687C106.977 48.5968 107.062 48.5109 107.062 48.5109C107.142 48.4902 107.209 48.4194 107.263 48.2987C107.402 48.1772 107.61 48.1553 107.887 48.2332C108.183 48.3058 108.36 48.4522 108.417 48.6723C108.423 48.7775 108.374 48.9608 108.271 49.2224C108.163 49.4639 108.032 49.7006 107.879 49.9325C107.745 50.1592 107.621 50.2981 107.506 50.3492C107.491 50.3744 107.432 50.4326 107.327 50.5237C107.218 50.5948 107.148 50.6556 107.118 50.7059L107.148 50.6982C107.03 50.9849 106.881 51.1516 106.701 51.1982L106.461 51.2604C106.418 51.4212 106.199 51.6486 105.806 51.9427C105.407 52.2168 104.997 52.4083 104.577 52.5172ZM104.217 45.5653C104.577 45.472 104.861 45.2916 105.07 45.0241C105.293 44.7315 105.471 44.4292 105.603 44.1173C105.863 43.4735 105.959 42.8937 105.889 42.378C105.834 41.8371 105.681 41.4926 105.429 41.3443C105.294 41.3154 105.176 41.3139 105.076 41.3398C104.991 41.3406 104.828 41.4146 104.589 41.562C104.419 41.6487 104.208 41.8636 103.955 42.2066C103.703 42.5496 103.458 42.9226 103.221 43.3256C103.003 43.7235 102.843 44.0532 102.74 44.3147L102.513 45.046C102.658 44.9445 102.8 44.8756 102.94 44.8393C103.095 44.7779 103.188 44.7645 103.218 44.7994C103.265 44.9794 103.339 45.1417 103.44 45.2862C103.557 45.4055 103.675 45.4922 103.796 45.5463C103.937 45.5952 104.077 45.6016 104.217 45.5653ZM120.021 47.683C119.973 47.9089 119.839 48.0078 119.618 47.9796C119.417 47.9463 119.246 47.9051 119.106 47.8562C118.966 47.8925 118.835 47.8836 118.714 47.8295C118.594 47.7754 118.492 47.6735 118.411 47.5238C118.34 47.4141 118.294 47.2767 118.272 47.1114C118.245 46.9262 118.234 46.7158 118.237 46.4802C118.254 46.2193 118.267 45.9385 118.275 45.6377C118.264 44.936 118.249 44.4274 118.231 44.1118C118.214 43.7961 118.206 43.5205 118.209 43.2849C118.212 43.0492 118.209 42.7084 118.201 42.2624C118.257 41.8208 118.286 41.397 118.287 40.9909C118.289 40.5849 118.341 40.1659 118.442 39.734C118.447 39.1775 118.49 38.6433 118.571 38.1313C118.667 37.5942 118.773 37.1396 118.89 36.7677C118.915 36.6973 118.964 36.5991 119.038 36.4732C119.132 36.3421 119.22 36.2661 119.3 36.2454C119.418 36.0439 119.543 35.9476 119.673 35.9565C119.818 35.9402 120.012 35.9862 120.253 36.0944C120.561 36.2923 120.728 36.569 120.756 36.9247C120.805 37.2751 120.694 37.8375 120.425 38.6117C120.346 39.2941 120.266 39.8913 120.185 40.4033C120.099 40.8953 120.068 41.3517 120.091 41.7725C120.228 41.3954 120.393 41.0431 120.586 40.7156C120.793 40.363 120.964 40.0733 121.097 39.8466C121.423 39.2924 121.701 38.879 121.929 38.6064C122.177 38.3286 122.468 38.0078 122.8 37.6441C122.999 37.4218 123.193 37.2221 123.382 37.0451C123.565 36.848 123.78 36.6858 124.024 36.5584C124.289 36.4258 124.589 36.3481 124.924 36.3251C125.119 36.2533 125.295 36.2718 125.451 36.3808C125.627 36.4845 125.787 36.6461 125.929 36.8654C126.071 37.0848 126.194 37.3519 126.297 37.6668C125.811 37.686 125.406 37.8123 125.082 38.0456C124.753 38.2589 124.482 38.4893 124.268 38.7368C124.075 38.979 123.921 39.1683 123.807 39.3046C123.559 39.5825 123.249 39.951 122.877 40.4104C122.499 40.8497 122.14 41.359 121.799 41.9384C121.543 42.4318 121.321 42.8522 121.133 43.1997C120.966 43.542 120.831 43.8439 120.728 44.1055C120.645 44.3618 120.594 44.6204 120.576 44.8812C120.496 45.3932 120.415 45.9477 120.335 46.5449C120.255 47.1421 120.15 47.5215 120.021 47.683ZM131.428 44.6956C130.564 44.5776 129.94 44.2697 129.555 43.7717C129.185 43.2486 128.914 42.3687 128.743 41.132C128.622 40.5014 128.536 40.0861 128.484 39.8861C128.432 39.686 128.27 39.5145 127.999 39.3714C127.918 39.307 127.779 39.2254 127.583 39.1269C127.407 39.0231 127.316 38.9186 127.31 38.8134C127.253 38.6785 127.224 38.5259 127.223 38.3555C127.216 38.1651 127.253 38.0595 127.333 38.0388C127.413 38.018 127.488 37.9773 127.558 37.9165C127.647 37.8506 127.737 37.8273 127.828 37.8466C127.908 37.8258 128 37.8125 128.106 37.8066C128.211 37.8007 128.274 37.8377 128.294 37.9178C128.411 38.0371 128.546 38.0234 128.7 37.8767C128.849 37.71 128.972 37.4007 129.068 36.9487C129.185 36.5768 129.362 36.1893 129.6 35.7863C129.857 35.3781 130.112 35.0024 130.364 34.6594C130.632 34.2912 130.86 34.0186 131.049 33.8415C131.139 33.7756 131.276 33.6867 131.46 33.5749C131.645 33.463 131.842 33.3586 132.052 33.2615C132.281 33.1593 132.479 33.0975 132.644 33.076C133.009 33.0027 133.335 33.025 133.622 33.1428C133.929 33.2555 134.223 33.4034 134.506 33.5864C134.812 33.6991 135.035 33.8977 135.172 34.1822C135.33 34.4616 135.433 34.7765 135.481 35.127C135.529 35.4774 135.52 35.8109 135.452 36.1272C135.444 36.3428 135.336 36.627 135.129 36.9796C134.921 37.3323 134.671 37.6853 134.378 38.0387C134.086 38.3921 133.805 38.6677 133.536 38.8654C133.291 38.9929 132.964 39.131 132.554 39.2799C132.164 39.4235 131.79 39.542 131.429 39.6353C131.084 39.7035 130.844 39.7231 130.708 39.6941C130.547 39.6504 130.466 39.7889 130.464 40.1098C130.461 40.4306 130.513 40.8763 130.618 41.4468C130.692 41.8973 130.775 42.2174 130.867 42.4071C130.959 42.5968 131.035 42.7265 131.096 42.7961C131.272 42.8999 131.509 43.0307 131.806 43.1886C132.118 43.3212 132.485 43.2579 132.909 42.9987C133.264 42.8001 133.566 42.4442 133.818 41.9307C134.089 41.4121 134.351 40.9813 134.603 40.6383C134.647 40.4775 134.757 40.3638 134.931 40.2971C135.121 40.2053 135.334 40.1609 135.569 40.1639C135.826 40.2469 135.96 40.3936 135.972 40.604C135.998 40.7893 135.971 41.0953 135.889 41.522C135.865 41.6776 135.772 41.894 135.609 42.1711C135.461 42.423 135.285 42.6926 135.082 42.9801C134.894 43.2424 134.715 43.4594 134.546 43.6313C134.029 44.1069 133.513 44.4221 132.998 44.5769C132.478 44.7116 131.954 44.7512 131.428 44.6956ZM131.62 38.145C132.034 37.9309 132.366 37.7702 132.616 37.6628C132.865 37.5554 133.087 37.3805 133.28 37.1383C133.469 36.876 133.673 36.4282 133.893 35.7947C133.916 35.5539 133.879 35.3286 133.782 35.1189C133.705 34.9041 133.616 34.767 133.515 34.7077C133.283 34.5543 133.048 34.5513 132.808 34.6987C132.584 34.8209 132.382 34.9906 132.204 35.2076C132.079 35.3039 131.908 35.5084 131.69 35.821C131.487 36.1085 131.294 36.436 131.112 36.8034C130.924 37.1509 130.782 37.4654 130.684 37.747C130.586 38.0285 130.582 38.1789 130.673 38.1982C130.654 38.2886 130.777 38.3101 131.042 38.2627C131.327 38.2101 131.52 38.1709 131.62 38.145ZM141.134 43.0773C140.712 43.0157 140.298 42.899 139.89 42.727C139.478 42.535 139.198 42.362 139.051 42.2078C139.005 42.0278 139.004 41.9 139.048 41.8244C139.087 41.7288 139.25 41.6548 139.535 41.6022C139.835 41.5244 140.326 41.4401 141.006 41.349C141.247 41.2868 141.541 41.1891 141.891 41.0557C142.241 40.9224 142.555 40.7769 142.835 40.6191C143.134 40.4561 143.288 40.3094 143.297 40.179C143.397 40.1531 143.409 40.1179 143.334 40.0735C143.253 40.009 143.162 39.9471 143.062 39.8878C142.982 39.9086 142.884 39.9019 142.768 39.8678C142.647 39.8137 142.547 39.797 142.467 39.8177C142.441 39.7177 142.313 39.6336 142.081 39.5654C141.865 39.472 141.647 39.4112 141.426 39.383C140.892 39.1369 140.429 38.9153 140.037 38.7182C139.639 38.501 139.467 38.3321 139.521 38.2113C139.5 38.1313 139.49 38.0913 139.49 38.0913C139.485 38.0713 139.482 38.0613 139.482 38.0613C139.342 38.0975 139.13 37.939 138.846 37.5855C138.583 37.2268 138.409 36.8875 138.326 36.5674C138.264 36.3273 138.257 36.0091 138.303 35.6127C138.345 35.1963 138.434 34.7569 138.57 34.2946C138.707 33.8323 138.871 33.4374 139.064 33.1099C139.336 32.6765 139.693 32.1997 140.134 31.6797C140.571 31.1396 141.01 30.6521 141.453 30.2173C141.91 29.7572 142.306 29.4305 142.64 29.2372C142.964 29.0038 143.276 28.8483 143.576 28.7705C143.896 28.6876 144.194 28.685 144.47 28.7629C144.696 28.8111 144.915 28.9145 145.127 29.0731C145.354 29.2065 145.553 29.3576 145.725 29.5266C145.912 29.6704 146.043 29.8071 146.119 29.9368C146.182 30.1768 146.232 30.4521 146.269 30.7626C146.302 31.053 146.307 31.3186 146.284 31.5594C146.281 31.7951 146.209 31.931 146.069 31.9673C146.069 31.9673 146.042 31.9851 145.987 32.0206C145.947 32.031 145.94 32.0862 145.966 32.1862C146.018 32.3863 145.927 32.6552 145.694 32.9931C145.382 33.3516 145.093 33.5972 144.829 33.7298C144.559 33.8424 144.36 33.7764 144.233 33.5319C144.152 33.4674 144.094 33.4078 144.058 33.3529C144.023 33.2981 143.965 33.281 143.885 33.3018C143.885 33.3018 143.847 33.2795 143.772 33.2351C143.696 33.1906 143.64 33.0983 143.604 32.9583C143.583 32.8783 143.595 32.8005 143.64 32.7249C143.679 32.6293 143.698 32.5815 143.698 32.5815C143.798 32.5556 143.9 32.4119 144.003 32.1504C144.101 31.8688 144.176 31.5825 144.229 31.2913C144.296 30.9749 144.317 30.7667 144.291 30.6667C144.26 30.5467 144.222 30.4818 144.177 30.4722C144.151 30.4574 144.059 30.4707 143.899 30.5121C143.65 30.7048 143.351 30.9529 143.003 31.2567C142.655 31.5604 142.326 31.8589 142.018 32.1523C141.725 32.4205 141.519 32.6553 141.4 32.8568C141.356 33.0176 141.33 33.1206 141.32 33.1658C141.305 33.191 141.258 33.2139 141.178 33.2347C141.157 33.1547 141.097 33.2128 140.999 33.4091C140.915 33.5803 140.807 33.8218 140.674 34.1337C140.561 34.4405 140.449 34.7472 140.336 35.0539C140.238 35.3355 140.165 35.5466 140.116 35.6874C140.086 35.7378 140.067 35.8708 140.059 36.0864C140.066 36.2768 140.09 36.452 140.131 36.6121C140.114 36.8729 140.168 37.0404 140.294 37.1145C140.414 37.1686 140.681 37.2916 141.094 37.4836C141.929 37.8223 142.59 38.1099 143.079 38.3463C143.567 38.5827 143.939 38.7851 144.197 38.9533C144.454 39.1215 144.625 39.2905 144.712 39.4602C145.228 39.9671 145.457 40.3987 145.4 40.7551C145.343 41.1114 145.075 41.4797 144.597 41.8597C144.423 42.0115 144.114 42.1771 143.669 42.3563C143.225 42.5356 142.762 42.6874 142.282 42.8118C141.807 42.9562 141.424 43.0447 141.134 43.0773ZM156.657 38.8632C156.405 38.715 156.135 38.4967 155.847 38.2084C155.553 37.9002 155.287 37.5315 155.048 37.1025C154.966 36.9528 154.889 36.7379 154.817 36.4578C154.764 36.1726 154.712 35.9725 154.661 35.8576C154.637 36.0132 154.576 36.1892 154.478 36.3855C154.394 36.5567 154.305 36.7078 154.211 36.839C154.151 36.9397 154.013 37.1464 153.795 37.4591C153.572 37.7517 153.339 38.0043 153.095 38.2169C152.543 38.8081 152.053 39.1807 151.623 39.3348C151.213 39.4836 150.756 39.3673 150.252 38.9856C149.864 38.8085 149.559 38.578 149.336 38.2942C149.133 38.0052 149.019 37.565 148.994 36.9738C148.852 36.2632 148.776 35.5571 148.765 34.8554C148.749 34.1337 148.846 33.1479 149.056 31.898C149.263 30.9689 149.428 30.2858 149.549 29.8486C149.666 29.3915 149.744 29.1151 149.783 29.0196C150.057 28.8418 150.31 28.787 150.541 28.8552C150.767 28.9034 150.936 29.0623 151.049 29.3321C151.221 29.501 151.289 29.8463 151.253 30.3679C151.238 30.8844 151.14 31.5393 150.962 32.3328C150.858 33.0856 150.774 33.8332 150.71 34.5756C150.666 35.3128 150.687 35.9267 150.771 36.4172C150.855 36.9077 151.051 37.1667 151.357 37.1942C151.563 37.2476 151.865 37.1372 152.264 36.8631C152.682 36.5838 153.089 36.0515 153.483 35.2662C153.897 34.4757 154.206 33.3603 154.409 31.9199C154.466 31.4783 154.495 31.0971 154.497 30.7763C154.494 30.4355 154.454 30.0724 154.375 29.6871C154.273 29.4574 154.229 29.2447 154.242 29.0491C154.27 28.8283 154.386 28.6168 154.59 28.4146C154.644 28.2938 154.731 28.1753 154.85 28.059C154.964 27.9226 155.054 27.8993 155.12 27.989L155.592 27.8346C155.667 27.7938 155.73 27.8309 155.781 27.9457C155.847 28.0354 155.941 28.1073 156.061 28.1614C156.328 28.2844 156.489 28.659 156.545 29.2851C156.6 29.9112 156.538 30.824 156.358 32.0236C156.19 32.9423 156.091 33.6299 156.059 34.0863C156.048 34.5375 156.085 34.9658 156.168 35.3711C156.261 35.7312 156.42 36.0531 156.643 36.337C156.866 36.6208 157.161 36.8538 157.528 37.0362C157.785 37.1192 157.946 37.2481 158.013 37.423C158.099 37.5927 158.164 37.8002 158.206 38.0454C158.213 38.2358 158.132 38.417 157.963 38.5889C157.808 38.7355 157.611 38.84 157.371 38.9022C157.131 38.9644 156.893 38.9514 156.657 38.8632ZM160.722 36.3689C160.49 36.3007 160.309 36.2195 160.178 36.1254C160.047 36.0313 159.953 35.8742 159.896 35.6541C159.818 35.354 159.778 35.0336 159.775 34.6927C159.767 34.3319 159.761 33.9811 159.758 33.6402C159.705 33.2698 159.662 32.8967 159.629 32.521C159.61 32.1202 159.659 31.7338 159.777 31.3619C159.8 30.5446 159.835 29.7348 159.884 28.9323C159.927 28.1099 159.935 27.2753 159.907 26.4284C159.976 25.6207 160.037 24.9109 160.092 24.2989C160.162 23.6617 160.243 22.8615 160.335 21.8983C160.385 21.3515 160.398 20.7825 160.373 20.1912C160.363 19.5748 160.438 19.0002 160.599 18.4675C160.672 18.2563 160.723 18.0829 160.752 17.9474C160.796 17.7866 160.842 17.6358 160.891 17.495C160.89 17.4098 160.937 17.3443 161.032 17.2983C161.147 17.2472 161.28 17.2235 161.43 17.2273C161.581 17.231 161.709 17.2725 161.815 17.3518C161.87 17.3162 161.955 17.3581 162.071 17.4774C162.203 17.5715 162.329 17.6883 162.45 17.8276C162.572 17.9669 162.638 18.0992 162.649 18.2244C162.67 18.3044 162.678 18.4196 162.675 18.57C162.691 18.7153 162.675 18.8583 162.626 18.999C162.567 19.0998 162.518 19.2406 162.479 19.4213C162.455 19.5769 162.407 19.8029 162.334 20.0993C162.322 20.3801 162.322 20.6683 162.334 20.9639C162.342 21.2396 162.324 21.5004 162.281 21.7464C162.263 22.0072 162.223 22.2632 162.16 22.5143C162.117 22.7603 162.093 22.9585 162.089 23.1089C162.069 23.6053 162.015 24.0995 161.929 24.5915C161.863 25.0783 161.825 25.5899 161.815 26.1263C161.799 26.6428 161.788 27.1792 161.783 27.7356C161.773 28.2721 161.697 28.8041 161.556 29.3316C161.473 29.5879 161.446 29.8939 161.474 30.2496C161.502 30.6053 161.53 30.9609 161.558 31.3166C161.531 31.7078 161.51 32.0764 161.492 32.4224C161.49 32.7432 161.499 32.9436 161.52 33.0237C161.514 33.4949 161.538 33.9584 161.592 34.414C161.661 34.8445 161.657 35.2406 161.58 35.6021C161.612 35.8074 161.613 35.9778 161.584 36.1134C161.555 36.249 161.473 36.3449 161.338 36.4012C161.198 36.4375 160.993 36.4267 160.722 36.3689ZM168.766 37.3908C168.08 37.4618 167.565 37.3283 167.222 36.9904C166.903 36.6673 166.7 36.0901 166.613 35.2588C166.634 34.8475 166.616 34.4893 166.559 34.184C166.516 33.8536 166.554 33.6302 166.673 33.5139C166.673 33.5139 166.675 33.4813 166.68 33.4161C166.704 33.3457 166.679 33.2883 166.603 33.2438C166.536 32.9837 166.532 32.6003 166.593 32.0935C166.602 31.9631 166.616 31.8101 166.634 31.6345C166.668 31.4337 166.685 31.3333 166.685 31.3333C166.543 31.1992 166.509 31.0691 166.583 30.9432C166.658 30.8172 166.734 30.7013 166.814 30.5953C166.908 30.4642 166.889 30.3516 166.758 30.2575C166.697 30.1878 166.701 29.9948 166.768 29.6784C166.83 29.3421 166.91 28.9905 167.007 28.6237C167.104 28.257 167.16 27.9758 167.173 27.7802C167.163 27.7402 167.176 27.5872 167.214 27.3212C167.252 27.0552 167.299 26.744 167.357 26.3876C167.414 26.0313 167.469 25.7075 167.521 25.4163C167.594 25.1199 167.64 24.9266 167.659 24.8362C167.833 24.6843 167.735 24.635 167.365 24.6883C166.994 24.7416 166.611 24.8301 166.216 24.9538C165.591 25.0945 165.083 25.194 164.693 25.2525C164.322 25.3058 163.999 25.2935 163.722 25.2157C163.41 24.9978 163.268 24.8211 163.297 24.6855C163.341 24.5247 163.56 24.3825 163.955 24.2588C164.21 24.1714 164.407 24.1096 164.547 24.0733C164.707 24.0318 164.905 23.97 165.14 23.8878C165.389 23.7804 165.777 23.6267 166.301 23.4267L167.8 22.9101L167.758 22.3767C167.851 22.0751 167.921 21.8113 167.97 21.5854C168.033 21.3342 168.076 21.0882 168.099 20.8474C168.122 20.6066 168.122 20.361 168.1 20.1105C168.1 20.1105 168.148 19.9272 168.246 19.5604C168.337 19.1737 168.357 18.7951 168.304 18.4246C168.44 17.9623 168.557 17.5477 168.654 17.181C168.746 16.7942 168.801 16.5556 168.821 16.4653C168.994 16.2282 169.121 16.0993 169.201 16.0785C169.301 16.0526 169.527 16.1008 169.879 16.2231C170.085 16.2765 170.276 16.3551 170.452 16.4588C170.628 16.5626 170.757 16.6893 170.839 16.839C170.915 16.9687 170.891 17.1242 170.768 17.3058C170.748 17.3962 170.727 17.5617 170.704 17.8025C170.676 18.0233 170.66 18.2089 170.656 18.3594C170.573 18.5305 170.482 18.7994 170.385 19.1662C170.303 19.5078 170.273 19.8464 170.296 20.182C170.224 20.5636 170.154 20.9125 170.087 21.2289C170.014 21.5253 169.938 21.6838 169.858 21.7046C169.95 21.8943 170.096 21.9632 170.296 21.9113C170.491 21.8395 170.816 21.734 171.27 21.5947C171.64 21.4562 171.89 21.3488 172.02 21.2725C172.164 21.1711 172.349 21.1444 172.575 21.1926C172.712 21.3067 172.833 21.446 172.94 21.6105C173.046 21.7751 173.101 21.9425 173.102 22.1129C173.118 22.2582 173.064 22.3789 172.94 22.4752C172.84 22.5011 172.645 22.6156 172.356 22.8186C172.082 22.9963 171.717 23.1548 171.262 23.2941L169.711 23.8562L169.465 25.0087C169.392 25.3051 169.335 25.5762 169.292 25.8222C169.243 26.0482 169.204 26.1864 169.175 26.2368C169.206 26.3568 169.183 26.555 169.105 26.8314C169.047 27.1025 168.984 27.3963 168.917 27.7127C168.885 28.0839 168.825 28.4303 168.738 28.7518C168.67 29.0682 168.636 29.2264 168.636 29.2264C168.556 29.2471 168.532 29.3175 168.563 29.4375C168.725 29.6517 168.742 29.8395 168.613 30.001C168.529 30.0869 168.462 30.2003 168.413 30.3411C168.379 30.4566 168.362 30.5144 168.362 30.5144C168.463 30.5737 168.498 30.6712 168.47 30.8068C168.461 30.9372 168.434 31.0827 168.391 31.2435C168.432 31.4036 168.442 31.6466 168.419 31.9726C168.417 32.2934 168.4 32.5968 168.367 32.8828C168.48 33.2378 168.56 33.4627 168.606 33.5575C168.652 33.6523 168.712 33.6794 168.787 33.6387C168.892 33.6327 168.982 33.6094 169.057 33.5687C169.132 33.5279 169.209 33.4972 169.289 33.4765C169.538 33.2839 169.57 34.023 169.383 35.6937C169.193 36.2768 169.066 36.6939 169.003 36.9451C168.945 37.2163 168.866 37.3648 168.766 37.3908ZM177.201 28.1603C176.666 28.4054 176.226 28.2312 175.88 27.6377C175.534 27.0442 175.356 26.1509 175.346 24.958C175.404 24.6869 175.444 24.4309 175.467 24.1901C175.485 23.9293 175.476 23.7288 175.44 23.5888C175.452 23.308 175.475 22.982 175.506 22.6108C175.553 22.2144 175.608 21.848 175.67 21.5116C175.727 21.1552 175.773 20.9192 175.807 20.8037C175.887 20.7829 175.949 20.6922 175.992 20.5314C176.056 20.3654 176.07 20.2124 176.034 20.0724C175.992 19.9123 175.976 19.7245 175.984 19.5089C176.012 19.2881 176.056 19.1273 176.115 19.0266C176.089 18.9265 176.1 18.8061 176.149 18.6654C176.198 18.5246 176.212 18.4142 176.192 18.3342C176.171 18.2542 176.173 18.179 176.197 18.1086C176.242 18.033 176.254 17.9552 176.233 17.8752C176.33 17.5084 176.438 16.9787 176.558 16.2859C176.692 15.568 176.808 14.8226 176.907 14.0498C177.026 13.2719 177.115 12.5869 177.175 11.9949C177.235 11.4029 177.25 11.0469 177.219 10.9268C177.217 10.7564 177.246 10.6208 177.305 10.5201C177.365 10.4193 177.479 10.3682 177.65 10.3667C177.714 10.286 177.787 10.2352 177.867 10.2145C177.942 10.1738 178.019 10.143 178.099 10.1223C178.099 10.1223 178.139 10.1545 178.22 10.219C178.321 10.2783 178.462 10.3698 178.643 10.4936C178.84 10.5922 178.971 10.7289 179.038 10.9038C179.105 11.0786 179.169 11.2861 179.231 11.5262C179.31 11.9115 179.281 12.3779 179.145 12.9254C179.01 13.4729 178.857 14.0783 178.687 14.7414C178.586 15.1733 178.479 15.5853 178.367 15.9772C178.275 16.364 178.24 16.5974 178.26 16.6774C178.281 16.7574 178.272 16.8878 178.234 17.0686C178.195 17.2494 178.157 17.4728 178.119 17.7388C178.051 17.9699 177.983 18.2437 177.915 18.5601C177.848 18.8764 177.785 19.1702 177.727 19.4414C177.684 19.6874 177.671 19.8404 177.686 19.9004C177.687 19.9856 177.678 20.0734 177.658 20.1638C177.659 20.249 177.63 20.342 177.571 20.4427C177.491 20.4635 177.456 20.5364 177.467 20.6617C177.493 20.7617 177.506 20.8117 177.506 20.8117C177.527 20.8917 177.526 21.0947 177.504 21.4207C177.496 21.7216 177.444 22.098 177.348 22.5499C177.243 23.7087 177.193 24.629 177.199 25.3106C177.199 25.9723 177.237 26.5283 177.311 26.9788C177.395 27.4694 177.428 27.7598 177.408 27.8502C177.409 27.9354 177.34 28.0388 177.201 28.1603ZM176.824 33.3816C176.48 33.6201 176.178 33.7731 175.918 33.8404C175.673 33.8826 175.372 33.8326 175.015 33.6903C174.541 33.4287 174.318 33.1022 174.345 32.711C174.386 32.2946 174.62 31.839 175.047 31.3441C175.35 31.0307 175.579 30.8433 175.734 30.7818C175.909 30.7152 176.197 30.7152 176.599 30.782C177.298 31.0066 177.666 31.3593 177.706 31.8402C177.765 32.3159 177.471 32.8297 176.824 33.3816Z" fill="#212121"/>
</svg>
