<svg width="101" height="100" viewBox="0 0 101 100" fill="none" xmlns="http://www.w3.org/2000/svg">
<path d="M34.1617 100C43.3617 100 50.8283 92.5334 50.8283 83.3334V66.6667H34.1617C24.9617 66.6667 17.495 74.1334 17.495 83.3334C17.495 92.5334 24.9617 100 34.1617 100Z" fill="#0ACF83"/>
<path d="M17.495 49.9999C17.495 40.7999 24.9617 33.3333 34.1617 33.3333H50.8283V66.6665H34.1617C24.9617 66.6665 17.495 59.1999 17.495 49.9999Z" fill="#A259FF"/>
<path d="M17.495 16.6667C17.495 7.46666 24.9617 0 34.1617 0H50.8283V33.3333H34.1617C24.9617 33.3333 17.495 25.8667 17.495 16.6667Z" fill="#F24E1E"/>
<path d="M50.8284 0H67.4951C76.6951 0 84.1618 7.46666 84.1618 16.6667C84.1618 25.8667 76.6951 33.3333 67.4951 33.3333H50.8284V0Z" fill="#FF7262"/>
<path d="M84.1618 49.9999C84.1618 59.1999 76.6951 66.6665 67.4951 66.6665C58.295 66.6665 50.8284 59.1999 50.8284 49.9999C50.8284 40.7999 58.295 33.3333 67.4951 33.3333C76.6951 33.3333 84.1618 40.7999 84.1618 49.9999Z" fill="#1ABCFE"/>
</svg>
