<?xml version="1.0" encoding="iso-8859-1"?>
<!-- Generator: Adobe Illustrator 19.0.0, SVG Export Plug-In . SVG Version: 6.00 Build 0)  -->
<svg version="1.1" id="Capa_1" xmlns="http://www.w3.org/2000/svg" xmlns:xlink="http://www.w3.org/1999/xlink" x="0px" y="0px"
	 viewBox="0 0 512.002 512.002" style="enable-background:new 0 0 512.002 512.002;" xml:space="preserve">
             <linearGradient id="myGradient" x1="0%" y1="100%" x2="100%" y2="0%">
        <stop offset="0%" style="stop-color:#5b98fb;stop-opacity:1" />
        <stop offset="100%" style="stop-color:#69ccfe;stop-opacity:1" />
    </linearGradient>
<g>
	<g>

		<path d="M361.24,276.391l-30.99-30.99l81.901-81.901l10.607,10.606c6.868,6.868,18.426,5.515,23.468-2.889l63.638-106.063
			c3.542-5.902,2.611-13.457-2.256-18.323L465.182,4.406c-4.866-4.867-12.422-5.796-18.323-2.256L340.796,65.788
			c-8.37,5.022-9.777,16.58-2.889,23.468l10.607,10.606l-81.902,81.901l-30.99-30.99c10.908-40.758-0.218-85.074-31.071-115.928
			c-38.593-38.592-96.366-44.7-141.547-20.363c-4.174,2.249-7.039,6.338-7.728,11.029c-0.688,4.691,0.882,9.431,4.235,12.784
			l56.292,56.292c5.849,5.849,5.849,15.365,0,21.212c-5.849,5.849-15.364,5.85-21.213,0L38.298,59.506
			c-3.353-3.353-8.094-4.924-12.784-4.235c-4.691,0.688-8.78,3.554-11.029,7.728C-9.76,108.011-3.874,165.822,34.85,204.545
			c30.785,30.785,75.078,42.005,115.928,31.072l9.774,9.773L22.001,383.944c-29.326,29.326-29.344,76.723,0,106.068
			c29.243,29.242,76.824,29.244,106.068,0l138.55-138.554l9.776,9.776c-10.908,40.758,0.218,85.074,31.071,115.928
			c38.593,38.593,96.366,44.701,141.547,20.364c4.174-2.249,7.039-6.338,7.728-11.029c0.688-4.691-0.882-9.431-4.235-12.784
			l-56.292-56.292c-5.849-5.849-5.849-15.365,0-21.212c5.849-5.849,15.365-5.848,21.213,0l56.292,56.292
			c3.352,3.353,8.093,4.921,12.784,4.235c4.691-0.688,8.78-3.554,11.029-7.728c24.245-45.012,18.36-102.823-20.364-141.546
			C446.383,276.678,402.09,265.458,361.24,276.391z M452.251,33.9l25.862,25.862l-47.727,79.546l-57.682-57.68L452.251,33.9z
			 M369.726,121.075l21.212,21.212l-81.901,81.901l-21.213-21.212L369.726,121.075z M106.856,468.801
			c-17.546,17.546-46.096,17.546-63.643,0c-17.605-17.605-17.616-46.027,0-63.643l138.55-138.554l63.643,63.643L106.856,468.801z
			 M478.931,415.288l-40.291-40.291c-17.544-17.543-46.092-17.544-63.638,0c-17.544,17.544-17.544,46.092,0,63.638l40.291,40.291
			c-30.612,8.358-63.515,0.122-86.613-22.975c-24.447-24.447-32.748-61.302-21.147-93.893c1.942-5.456,0.57-11.542-3.525-15.636
			L165.591,208.005c-4.086-4.086-10.168-5.471-15.636-3.525c-32.592,11.601-69.446,3.299-93.893-21.147
			c-23.098-23.098-31.333-56-22.975-86.612l40.291,40.291c17.544,17.544,46.092,17.543,63.638,0
			c17.544-17.544,17.544-46.092,0-63.638L96.725,33.083c30.611-8.36,63.515-0.123,86.613,22.975
			c24.447,24.447,32.748,61.302,21.147,93.893c-1.942,5.456-0.57,11.542,3.525,15.636l138.416,138.416
			c4.095,4.095,10.181,5.466,15.636,3.525c32.59-11.601,69.446-3.299,93.893,21.147
			C479.054,351.775,487.289,384.676,478.931,415.288z" fill="url(#myGradient)"/>
	</g>
</g>
<g>
	<g>
		<path d="M195.03,319.984c-5.858-5.857-15.354-5.857-21.212,0L82.16,411.645c-5.857,5.858-5.857,15.354,0,21.212
			c5.859,5.858,15.354,5.857,21.212,0l91.657-91.661C200.886,335.338,200.886,325.841,195.03,319.984z"  fill="url(#myGradient)"/>
	</g>
</g>
<g>
</g>
<g>
</g>
<g>
</g>
<g>
</g>
<g>
</g>
<g>
</g>
<g>
</g>
<g>
</g>
<g>
</g>
<g>
</g>
<g>
</g>
<g>
</g>
<g>
</g>
<g>
</g>
<g>
</g>
</svg>
