<svg xmlns="http://www.w3.org/2000/svg" viewBox="0 0 24 24" width="90px" height="90px">
  <rect width="100%" height="100%" fill="white" rx="4"/>
  <path d="M 10 3 C 8.3550302 3 7 4.3550302 7 6 L 9 6 C 9 5.4349698 9.4349698 5 10 5 L 18 5 C 18.56503 5 19 5.4349698 19 6 L 19 14 C 19 14.56503 18.56503 15 18 15 L 10 15 C 9.4349698 15 9 14.56503 9 14 L 9 10 L 7 10 L 7 14 C 7 15.64497 8.3550302 17 10 17 L 18 17 C 19.64497 17 21 15.64497 21 14 L 21 6 C 21 4.3550302 19.64497 3 18 3 L 10 3 z M 6 7 C 4.3550302 7 3 8.3550302 3 10 L 3 18 C 3 19.64497 4.3550302 21 6 21 L 14 21 C 15.64497 21 17 19.64497 17 18 L 15 18 C 15 18.56503 14.56503 19 14 19 L 6 19 C 5.4349698 19 5 18.56503 5 18 L 5 10 C 5 9.4349698 5.4349698 9 6 9 L 14 9 C 14.56503 9 15 9.4349698 15 10 L 15 14 L 17 14 L 17 10 C 17 8.3550302 15.64497 7 14 7 L 6 7 z"/>
</svg>