<svg width="24" height="24" viewBox="0 0 24 24" fill="none" xmlns="http://www.w3.org/2000/svg">
<path fill-rule="evenodd" clip-rule="evenodd" d="M15.95 1C16.1385 2.27997 15.6175 3.53392 14.9302 4.4211C14.1949 5.37271 12.9275 6.10872 11.6996 6.07031C11.4754 4.84486 12.0493 3.58224 12.7477 2.73347C13.5138 1.79673 14.8267 1.07806 15.95 1ZM19.639 19.0161C20.2721 18.0459 20.5086 17.5564 21 16.4611C17.4257 15.1018 16.853 10.0203 20.3903 8.07003C19.3114 6.71695 17.7952 5.93262 16.364 5.93262C15.3328 5.93262 14.6262 6.20173 13.9839 6.44638C13.4486 6.65026 12.9579 6.83714 12.3611 6.83714C11.7162 6.83714 11.1451 6.63237 10.5471 6.41796C9.88997 6.18235 9.20037 5.9351 8.34468 5.9351C6.73859 5.9351 5.02904 6.91645 3.94518 8.59416C2.42162 10.9571 2.6815 15.3992 5.15221 19.1833C6.03531 20.5376 7.21524 22.0592 8.75852 22.0729C9.39887 22.0792 9.825 21.8881 10.2861 21.6813C10.8139 21.4445 11.3876 21.1873 12.3808 21.182C13.3799 21.176 13.9446 21.4364 14.4653 21.6766C14.9146 21.8838 15.3313 22.076 15.9662 22.0691C17.5107 22.0568 18.7559 20.3704 19.639 19.0161Z" fill="#03030f"/>
</svg>
