<svg clip-rule="evenodd" fill-rule="evenodd" height="512" stroke-linejoin="round" stroke-miterlimit="2" viewBox="0 0 24 24" width="512" xmlns="http://www.w3.org/2000/svg">
    <linearGradient id="myGradient" x1="0%" y1="100%" x2="100%" y2="0%">
        <stop offset="0%" style="stop-color:#5b98fb;stop-opacity:1" />
        <stop offset="100%" style="stop-color:#69ccfe;stop-opacity:1" />
    </linearGradient>
<g id="Icon">
<path d="m22.75 12.5v-7.5c0-2.071-1.679-3.75-3.75-3.75-3.776 0-10.224 0-14 0-2.071 0-3.75 1.679-3.75 3.75v14c0 2.071 1.679 3.75 3.75 3.75h7.5c.414 0 .75-.336.75-.75s-.336-.75-.75-.75h-7.5c-1.243 0-2.25-1.007-2.25-2.25v-14c0-1.243 1.007-2.25 2.25-2.25h14c1.243 0 2.25 1.007 2.25 2.25v7.5c0 .414.336.75.75.75s.75-.336.75-.75z"  fill="url(#myGradient)"/>
<path d="m22 6.25h-20c-.414 0-.75.336-.75.75s.336.75.75.75h20c.414 0 .75-.336.75-.75s-.336-.75-.75-.75z"  fill="url(#myGradient)"/>
<circle cx="12.75" cy="4.5" r=".75" fill="url(#myGradient)"/>
<circle cx="15.5" cy="4.5" r=".75"  fill="url(#myGradient)"/>
<circle cx="18.25" cy="4.5" r=".75"  fill="url(#myGradient)"/>
<path d="m9.052 9.763-1.527 4.582c-.131.392.081.817.474.948s.818-.081.949-.474l1.527-4.582c.131-.393-.081-.818-.474-.949-.393-.13-.818.082-.949.475z"  fill="url(#myGradient)"/>
<path d="m10.942 11.294.997.997s-.997.997-.997.997c-.292.293-.292.768 0 1.061.293.292.768.292 1.061 0l1.527-1.528c.293-.293.293-.768 0-1.06l-1.527-1.528c-.293-.292-.768-.292-1.061 0-.292.293-.292.768 0 1.061z" fill="url(#myGradient)"/>
<path d="m5.997 10.233-1.527 1.528c-.293.292-.293.767 0 1.06l1.527 1.528c.293.292.768.292 1.061 0 .292-.293.292-.768 0-1.061l-.997-.997s.997-.997.997-.997c.292-.293.292-.768 0-1.061-.293-.292-.768-.292-1.061 0z" fill="url(#myGradient)"/>
<path d="m21.286 18.036c0-1.794-1.457-3.25-3.25-3.25-1.794 0-3.25 1.456-3.25 3.25 0 1.793 1.456 3.25 3.25 3.25 1.793 0 3.25-1.457 3.25-3.25zm-1.5 0c0 .965-.785 1.75-1.75 1.75-.966 0-1.75-.785-1.75-1.75 0-.966.784-1.75 1.75-1.75.965 0 1.75.784 1.75 1.75z" fill="url(#myGradient)"/>
<path d="m14 18.786h1.464c.414 0 .75-.337.75-.75 0-.414-.336-.75-.75-.75h-1.464c-.414 0-.75.336-.75.75 0 .413.336.75.75.75z"  fill="url(#myGradient)"/>
<path d="m15.727 21.384 1.036-1.036c.292-.292.292-.768 0-1.06-.293-.293-.768-.293-1.061 0l-1.036 1.035c-.292.293-.292.768 0 1.061.293.293.768.293 1.061 0z" fill="url(#myGradient)"/>
<path d="m18.786 22v-1.464c0-.414-.337-.75-.75-.75-.414 0-.75.336-.75.75v1.464c0 .414.336.75.75.75.413 0 .75-.336.75-.75z" fill="url(#myGradient)"/>
<path d="m21.384 20.273-1.036-1.036c-.292-.292-.768-.292-1.06 0-.293.293-.293.768 0 1.061l1.035 1.036c.293.292.768.292 1.061 0 .293-.293.293-.768 0-1.061z" fill="url(#myGradient)"/>
<path d="m22 17.286h-1.464c-.414 0-.75.336-.75.75 0 .413.336.75.75.75h1.464c.414 0 .75-.337.75-.75 0-.414-.336-.75-.75-.75z"  fill="url(#myGradient)"/>
<path d="m20.323 14.666-1.035 1.036c-.293.293-.293.768 0 1.061.292.292.768.292 1.06 0l1.036-1.036c.293-.293.293-.768 0-1.061-.293-.292-.768-.292-1.061 0z" fill="url(#myGradient)"/>
<path d="m17.286 14v1.464c0 .414.336.75.75.75.413 0 .75-.336.75-.75v-1.464c0-.414-.337-.75-.75-.75-.414 0-.75.336-.75.75z" fill="url(#myGradient)"/>
<path d="m14.666 15.677 1.036 1.035c.293.293.768.293 1.061 0 .292-.292.292-.768 0-1.06l-1.036-1.036c-.293-.293-.768-.293-1.061 0-.292.293-.292.768 0 1.061z" fill="url(#myGradient)"/></g></svg>