<svg width="25" height="24" viewBox="0 0 25 24" fill="none" xmlns="http://www.w3.org/2000/svg">
<path fill-rule="evenodd" clip-rule="evenodd" d="M15.5465 3.38592L15.3179 3.72215C17.0527 4.5095 18.227 6.00077 18.227 7.70731H6.77441C6.77441 6.00077 7.94875 4.5095 9.68478 3.72215L9.45489 3.38592L9.22623 3.05453L8.71673 2.3095C8.6546 2.21758 8.68069 2.09422 8.7739 2.03374C8.86834 1.97327 8.99509 1.99746 9.05847 2.08938L9.60525 2.88762L9.83515 3.22264L10.0675 3.56371C10.8069 3.28433 11.6321 3.1283 12.5007 3.1283C13.3706 3.1283 14.1945 3.28433 14.9339 3.56371L15.1675 3.22264L15.9454 2.08938C16.0063 1.99746 16.1343 1.97206 16.2275 2.03374C16.322 2.09422 16.3481 2.21758 16.2847 2.3095L15.7752 3.05453L15.5465 3.38592ZM9.43262 5.51716C9.43262 5.84734 9.70725 6.11463 10.0465 6.11463C10.3858 6.11463 10.6604 5.84734 10.6604 5.51716C10.6604 5.18698 10.3858 4.9209 10.0465 4.9209C9.70725 4.9209 9.43262 5.18698 9.43262 5.51716ZM14.9558 6.11473C14.6165 6.11473 14.3419 5.84744 14.3419 5.51726C14.3419 5.18708 14.6165 4.921 14.9558 4.921C15.295 4.921 15.5697 5.18708 15.5697 5.51726C15.5697 5.84744 15.295 6.11473 14.9558 6.11473ZM6.77344 8.50293H6.86167H18.226V17.2618C18.226 17.9573 17.6469 18.5233 16.9311 18.5233H15.9954C16.0277 18.6285 16.0464 18.7386 16.0464 18.8547V21.3764C16.0464 22.0356 15.4958 22.5701 14.8173 22.5701C14.1401 22.5701 13.5908 22.0356 13.5908 21.3764V18.8547C13.5908 18.7386 13.6082 18.6285 13.6393 18.5233H11.3602C11.3913 18.6285 11.4099 18.7386 11.4099 18.8547V21.3764C11.4099 22.0356 10.8594 22.5701 10.1821 22.5701C9.50486 22.5701 8.95435 22.0356 8.95435 21.3764V18.8547C8.95435 18.7386 8.97175 18.6285 9.00406 18.5233H8.06956C7.35377 18.5233 6.77344 17.9573 6.77344 17.2618V8.50293ZM4.72777 8.50293C4.04927 8.50293 3.5 9.03751 3.5 9.69667V14.8066C3.5 15.4658 4.04927 16.0004 4.72777 16.0004C5.40504 16.0004 5.9543 15.4658 5.9543 14.8066V9.69667C5.9543 9.03751 5.40504 8.50293 4.72777 8.50293ZM19.0459 9.69667C19.0459 9.03751 19.5952 8.50293 20.2737 8.50293C20.9509 8.50293 21.5002 9.03751 21.5002 9.69667V14.8066C21.5002 15.4658 20.9509 16.0004 20.2737 16.0004C19.5952 16.0004 19.0459 15.4658 19.0459 14.8066V9.69667Z" fill="#03030f"/>
</svg>
