<svg version="1.1" id="Capa_1" xmlns="http://www.w3.org/2000/svg" xmlns:xlink="http://www.w3.org/1999/xlink" x="0px" y="0px" viewBox="0 0 512 512" style="enable-background:new 0 0 512 512;" xml:space="preserve">
             <linearGradient id="myGradient" x1="0%" y1="100%" x2="100%" y2="0%">
        <stop offset="0%" style="stop-color:#5b98fb;stop-opacity:1" />
        <stop offset="100%" style="stop-color:#69ccfe;stop-opacity:1" />
    </linearGradient>
<g>
   
	<path style="fill:none;stroke:#000000;stroke-width:30;stroke-linecap:round;stroke-linejoin:round;stroke-miterlimit:10;" d="&#10;&#9;&#9;M393,40.798V75H119V40.798C119,26.55,130.55,15,144.798,15h222.404C381.45,15,393,26.55,393,40.798z"  fill="url(#myGradient)"/>
	<path style="fill:none;stroke:#000000;stroke-width:30;stroke-linecap:round;stroke-linejoin:round;stroke-miterlimit:10;" d="&#10;&#9;&#9;M393,371v100.2c0,14.25-11.55,25.8-25.8,25.8H144.8c-14.25,0-25.8-11.55-25.8-25.8V371"  fill="url(#myGradient)"/>
	
		<polyline style="fill:none;stroke:#000000;stroke-width:30;stroke-linecap:round;stroke-linejoin:round;stroke-miterlimit:10;" points="&#10;&#9;&#9;119,141 119,75 393,75 393,141 &#9;" />
	<g>
		<g>
			<g>
				
					<line style="fill:none;stroke:#000000;stroke-width:30;stroke-linecap:round;stroke-linejoin:round;stroke-miterlimit:10;" x1="321" y1="224.5" x2="352.5" y2="256"  fill="url(#myGradient)"/>
				
					<line style="fill:none;stroke:#000000;stroke-width:30;stroke-linecap:round;stroke-linejoin:round;stroke-miterlimit:10;" x1="321" y1="287.5" x2="352.5" y2="256"  fill="url(#myGradient)"/>
			</g>
			<g>
				
					<line style="fill:none;stroke:#000000;stroke-width:30;stroke-linecap:round;stroke-linejoin:round;stroke-miterlimit:10;" x1="191" y1="224.5" x2="159.5" y2="256"  fill="url(#myGradient)"/>
				
					<line style="fill:none;stroke:#000000;stroke-width:30;stroke-linecap:round;stroke-linejoin:round;stroke-miterlimit:10;" x1="191" y1="287.5" x2="159.5" y2="256"  fill="url(#myGradient)"/>
			</g>
		</g>
		
			<line style="fill:none;stroke:#000000;stroke-width:30;stroke-linecap:round;stroke-linejoin:round;stroke-miterlimit:10;" x1="270.036" y1="201.031" x2="241.964" y2="310.969"  fill="url(#myGradient)"/>
	</g>
	
		<rect x="81" y="141" style="fill:none;stroke:#000000;stroke-width:30;stroke-linecap:round;stroke-linejoin:round;stroke-miterlimit:10;" width="350" height="230" fill="url(#myGradient)"/>
	
		<line style="fill:none;stroke:#000000;stroke-width:30;stroke-linecap:round;stroke-linejoin:round;stroke-miterlimit:10;" x1="230.5" y1="437" x2="281.5" y2="437" fill="url(#myGradient)"/>
</g>
<g>
</g>
<g>
</g>
<g>
</g>
<g>
</g>
<g>
</g>
<g>
</g>
<g>
</g>
<g>
</g>
<g>
</g>
<g>
</g>
<g>
</g>
<g>
</g>
<g>
</g>
<g>
</g>
<g>
</g>
</svg>