<svg width="512" height="512" viewBox="0 0 512 512" fill="none" xmlns="http://www.w3.org/2000/svg">
<g clip-path="url(#clip0_339_1035)">
<path d="M234.158 9.1088L9.07562 234.006C-3.02521 246.097 -3.02521 265.626 9.07562 277.717L234.158 502.615C246.259 514.706 265.804 514.706 277.905 502.615L372.279 408.318C383.116 397.49 383.116 379.934 372.279 369.106C361.442 358.277 343.871 358.277 333.034 369.106L261.49 440.591C258.478 443.6 253.907 443.6 250.895 440.591L71.1503 260.994C68.1384 257.985 68.1384 253.417 71.1503 250.408L250.895 70.8112C253.907 67.8018 258.478 67.8018 261.49 70.8112L333.034 142.296C343.871 153.125 361.442 153.125 372.279 142.296C383.116 131.468 383.116 113.912 372.279 103.084L277.915 8.79778C265.765 -3.03145 246.213 -2.93568 234.158 9.1088Z" fill="url(#paint0_linear_339_1035)"/>
<path d="M234.158 9.1088L9.07562 234.006C-3.02521 246.097 -3.02521 265.626 9.07562 277.717L234.158 502.615C246.259 514.706 265.804 514.706 277.905 502.615L372.279 408.318C383.116 397.49 383.116 379.934 372.279 369.106C361.442 358.277 343.871 358.277 333.034 369.106L261.49 440.591C258.478 443.6 253.907 443.6 250.895 440.591L71.1503 260.994C68.1384 257.985 68.1384 253.417 71.1503 250.408L250.895 70.8112C258.394 64.3459 270.631 51.2507 288.6 48.188C301.954 45.9118 316.553 50.9216 332.399 63.2174C321.805 52.6325 303.644 34.4926 277.915 8.79778C265.765 -3.03145 246.213 -2.93568 234.158 9.1088Z" fill="url(#paint1_linear_339_1035)"/>
<path d="M394.065 348.19C404.902 359.018 422.472 359.018 433.309 348.19L502.924 278.633C515.025 266.542 515.025 247.013 502.926 234.923L432.704 165.008C421.841 154.193 404.265 154.208 393.421 165.043C382.584 175.871 382.584 193.427 393.421 204.256L440.85 251.645C443.861 254.654 443.861 259.222 440.85 262.231L394.065 308.978C383.227 319.806 383.227 337.362 394.065 348.19Z" fill="url(#paint2_linear_339_1035)"/>
<path d="M257.157 317.709C290.721 317.709 317.929 290.522 317.929 256.986C317.929 223.45 290.721 196.264 257.157 196.264C223.593 196.264 196.385 223.45 196.385 256.986C196.385 290.522 223.593 317.709 257.157 317.709Z" fill="url(#paint3_linear_339_1035)"/>
</g>
<defs>
<linearGradient id="paint0_linear_339_1035" x1="236.241" y1="1.36827e-05" x2="450.136" y2="130.622" gradientUnits="userSpaceOnUse">
<stop stop-color="#4285EB"/>
<stop offset="1" stop-color="#2EC7FF"/>
</linearGradient>
<linearGradient id="paint1_linear_339_1035" x1="264.931" y1="-3.57291e-06" x2="159.287" y2="545.997" gradientUnits="userSpaceOnUse">
<stop stop-color="#29CDFF"/>
<stop offset="0.378601" stop-color="#148EFF"/>
<stop offset="1" stop-color="#0A60FF"/>
</linearGradient>
<linearGradient id="paint2_linear_339_1035" x1="473.596" y1="131.035" x2="336.137" y2="346.01" gradientUnits="userSpaceOnUse">
<stop stop-color="#FA816E"/>
<stop offset="0.414726" stop-color="#F74A5C"/>
<stop offset="1" stop-color="#F51D2C"/>
</linearGradient>
<linearGradient id="paint3_linear_339_1035" x1="279.191" y1="152.92" x2="233.454" y2="335.873" gradientUnits="userSpaceOnUse">
<stop stop-color="#FA8E7D"/>
<stop offset="0.512635" stop-color="#F74A5C"/>
<stop offset="1" stop-color="#F51D2C"/>
</linearGradient>
<clipPath id="clip0_339_1035">
<rect width="512" height="512" fill="white"/>
</clipPath>
</defs>
</svg>
