<svg width="58" height="56" viewBox="0 0 58 56" fill="none" xmlns="http://www.w3.org/2000/svg">
<path d="M44.0308 19.5427C44.042 19.5839 44.0477 19.6264 44.0478 19.6691V26.3064C44.0478 26.3916 44.0252 26.4753 43.9822 26.549C43.9393 26.6227 43.8776 26.6838 43.8032 26.7262L38.2013 29.9335V36.2908C38.2013 36.4638 38.1089 36.6235 37.958 36.7106L26.2645 43.4047C26.2377 43.4198 26.2085 43.4295 26.1793 43.4398C26.1684 43.4434 26.158 43.4501 26.1465 43.4531C26.0647 43.4745 25.9788 43.4745 25.8971 43.4531C25.8837 43.4495 25.8715 43.4422 25.8588 43.4374C25.832 43.4277 25.804 43.4192 25.7785 43.4047L14.0874 36.7106C14.0131 36.6681 13.9514 36.607 13.9085 36.5333C13.8655 36.4596 13.8429 36.3759 13.8428 36.2908V16.3789C13.8428 16.3353 13.8489 16.293 13.8599 16.2519C13.8635 16.2379 13.872 16.2252 13.8769 16.2113C13.886 16.1859 13.8945 16.1599 13.9079 16.1363C13.917 16.1206 13.9304 16.1079 13.9414 16.0934C13.9554 16.074 13.9681 16.054 13.9846 16.0371C13.9986 16.0232 14.0168 16.0129 14.0326 16.0008C14.0503 15.9863 14.0661 15.9706 14.0862 15.9591H14.0868L19.9326 12.612C20.0066 12.5696 20.0905 12.5473 20.1759 12.5473C20.2613 12.5473 20.3452 12.5696 20.4193 12.612L26.2651 15.9591H26.2663C26.2858 15.9712 26.3022 15.9863 26.3198 16.0002C26.3357 16.0123 26.3533 16.0232 26.3673 16.0365C26.3843 16.054 26.3965 16.074 26.4111 16.0934C26.4214 16.1079 26.4354 16.1206 26.4439 16.1363C26.4579 16.1605 26.4658 16.1859 26.4756 16.2113C26.4804 16.2252 26.489 16.2379 26.4926 16.2525C26.5038 16.2937 26.5095 16.3362 26.5096 16.3789V28.8156L31.381 26.0263V19.6685C31.381 19.6262 31.3871 19.5832 31.398 19.5427C31.4023 19.5282 31.4102 19.5155 31.415 19.5015C31.4248 19.4761 31.4333 19.4501 31.4467 19.4265C31.4558 19.4108 31.4692 19.3981 31.4795 19.3836C31.4941 19.3642 31.5063 19.3443 31.5233 19.3273C31.5373 19.3134 31.555 19.3031 31.5708 19.291C31.589 19.2765 31.6048 19.2608 31.6243 19.2493H31.6249L37.4714 15.9022C37.5454 15.8598 37.6293 15.8375 37.7147 15.8375C37.8001 15.8375 37.884 15.8598 37.958 15.9022L43.8039 19.2493C43.8245 19.2614 43.8404 19.2765 43.8586 19.2904C43.8738 19.3025 43.8914 19.3134 43.9054 19.3267C43.9225 19.3443 43.9346 19.3642 43.9492 19.3836C43.9602 19.3981 43.9736 19.4108 43.9821 19.4265C43.9961 19.4501 44.004 19.4761 44.0137 19.5015C44.0192 19.5155 44.0271 19.5282 44.0308 19.5427ZM43.0733 26.0263V20.5069L41.0275 21.6781L38.2013 23.2963V28.8156L43.0739 26.0263H43.0733ZM37.2274 36.0107V30.4877L34.4475 32.0665L26.509 36.572V42.1471L37.2274 36.0107ZM14.8173 17.2167V36.0107L25.5345 42.1465V36.5727L19.9357 33.4216L19.9338 33.4204L19.9314 33.4192C19.9125 33.4083 19.8967 33.3925 19.8791 33.3792C19.8639 33.3671 19.8462 33.3575 19.8328 33.3441L19.8316 33.3423C19.8158 33.3272 19.8049 33.3085 19.7915 33.2915C19.7793 33.2752 19.7647 33.2613 19.755 33.2443L19.7544 33.2425C19.7434 33.2244 19.7367 33.2026 19.7288 33.182C19.7209 33.1639 19.7106 33.1469 19.7057 33.1276V33.127C19.6996 33.104 19.6984 33.0798 19.696 33.0562C19.6935 33.038 19.6887 33.0199 19.6887 33.0018V20.0061L16.8631 18.3873L14.8173 17.2173V17.2167ZM20.1765 13.5908L15.3058 16.3789L20.1753 19.167L25.0454 16.3783L20.1753 13.5908H20.1765ZM22.7095 30.991L25.5351 29.3734V17.2167L23.4894 18.3879L20.6632 20.0061V32.1627L22.7095 30.991ZM37.7147 16.881L32.8446 19.6691L37.7147 22.4572L42.5842 19.6685L37.7147 16.881ZM37.2274 23.2963L34.4012 21.6781L32.3555 20.5069V26.0263L35.1811 27.6439L37.2274 28.8156V23.2963ZM26.0212 35.7342L33.1645 31.6788L36.7353 29.6523L31.8688 26.866L26.2657 30.0739L21.159 32.9975L26.0212 35.7342Z" fill="#FF2D20"/>
</svg>
